<svg version="1" xmlns="http://www.w3.org/2000/svg" width="356" height="356" viewBox="0 0 267.000000 267.000000"><path d="M0 59.7c0 32.8.2 59.4.4 59.2 2-2.2 10.6-14.2 10.6-14.8 0-1.7 24.6-23.9 25.5-22.9.2.2-.6 3.7-1.9 7.8-1.3 4.1-3.4 12.1-4.7 17.8-2.3 10.3-2.1 13 .9 14 .6.2 5.4-4.2 10.8-9.7 5.3-5.6 10.1-10.1 10.5-10.1.5 0 .5 4.4.2 9.8-.7 11.5.8 23.3 4.2 33.6 4 11.6 11.3 16.5 20.8 13.6 5.8-1.7 9.3-6 11.9-14.3 3.2-10.5 3.2-37.2 0-53.9-1.2-6.4-2.7-12.9-3.2-14.3-1.4-3.7-1.3-4.3 1-5 1.4-.5 2-1.4 1.8-3-.5-4.2 30.9-32.2 51.4-45.8C151 14.4 168 5.2 176.5 1.8 180.2.3 173.7.2 90.3.1L0 0v59.7zM208.5 46c-7.7 1.2-26.6 5.9-28.5 7-1.2.8-1.3 1.3-.3 2.8.9 1.5.8 2.9-.4 6.3-.8 2.4-2.2 10-3 16.9-2.3 19.6-.5 41.1 4.4 50.4.9 1.7 2.2 4.2 2.8 5.6 4.6 9 17.7 9.1 23.8.2 5.1-7.4 6.2-13.8 6.2-35.7 0-22-1.4-31.1-6-40.6-1.4-2.9-2.2-5.6-1.7-6.1 1.6-1.6 23.8-2.8 36.1-1.8 6.7.5 12.9.6 13.7.3 2.6-1 1-3.7-2.6-4.5-5.3-1.3-37.7-1.8-44.5-.8zM251.9 145.4c-.9.9-21.7 6.5-29.9 8.1-6 1.2-12.8 1.5-23.2 1.3-10.7-.2-15.1.1-16 1-4.5 4.5 18.5 6.8 36.8 3.7 15.6-2.7 38.4-10.4 38.4-13.1 0-1.3-5-2.1-6.1-1zM15.2 168.8c-2.6.8-1 3.4 3.3 5.2 10.5 4.5 16.3 5.5 33.5 5.4 17.3 0 24.9-1.2 35.8-5.5 5.2-2.1 6.8-4.4 3.5-5.1-1-.2-5.6.6-10.3 1.9-19.4 5.3-38.4 5.3-56.5 0-4.5-1.3-8.6-2.2-9.3-1.9zM136.4 178.5c-1.6 4.2 12.7 22.5 17.5 22.5 3.6 0 2.4-3-3.3-8.4-2.9-2.9-6.5-7.5-8-10.4-2.6-5.1-5.1-6.6-6.2-3.7zM263.7 201.4c-14.6 27.9-35.2 45.6-64 55.1-18.5 6-27.8 7-64.6 6.7-32.1-.2-42.7-.9-57-3.8-16.2-3.4-34.8-11-47.5-19.7-7.6-5.1-19.3-16.2-24.7-23.5-2.4-3.1-4.7-6.1-5.1-6.7-.4-.5-.8 12.2-.8 28.3V267h222.9l.6-3.3c.3-1.7.7-4.8.9-6.7.3-3 1.1-3.9 6.9-7.5 8-4.8 25.5-18.7 31.5-24.8l4.3-4.3-.3-12.2-.3-12.2-2.8 5.4z"/><path d="M82.5 227.1c-.9 1.4 2.9 5.4 7 7.3 3.9 1.9 17 3.9 19.7 3 3.7-1.1 1.1-2.8-7.1-4.6-4.6-.9-10.3-2.9-12.6-4.3-4.8-2.8-6.1-3-7-1.4zM265.4 232.4c-.6.6-2.4 2.2-4 3.6-2.7 2.3-5.5 4.4-17.4 13.2-2.5 1.8-5.1 3.9-5.8 4.6-.8.7-2.7 1.9-4.3 2.7-2.2 1.2-2.9 2.3-2.9 4.4 0 2.6.6 3.1 4.7 4.5 2.9 1 8.1 1.6 14 1.6h9.2l-6-8.6c-3.3-4.8-5.8-8.8-5.6-9 .2-.3 4.6.7 9.6 2.2 5.1 1.4 9.4 2.4 9.7 2.1.3-.2.3-5.4.2-11.5-.2-8-.6-10.7-1.4-9.8z"/></svg>